<?xml version="1.0" standalone="no"?>
<!DOCTYPE svg PUBLIC "-//W3C//DTD SVG 20010904//EN"
 "http://www.w3.org/TR/2001/REC-SVG-20010904/DTD/svg10.dtd">
<svg version="1.0" xmlns="http://www.w3.org/2000/svg"
 width="603.000000pt" height="637.000000pt" viewBox="0 0 603.000000 637.000000"
 preserveAspectRatio="xMidYMid meet">

<g transform="translate(0.000000,637.000000) scale(0.100000,-0.100000)"
fill="rgba(231, 233, 234, 1.00)" stroke="none">
<path d="M368 5918 c11 -18 49 -80 85 -138 l64 -105 467 -5 468 -5 649 -1030
c357 -566 652 -1031 657 -1032 4 -1 53 65 110 148 l103 150 -608 1024 -608
1024 -703 1 -704 0 20 -32z"/>
<path d="M4344 5923 c-118 -180 -199 -312 -177 -285 l28 32 478 -2 478 -3
-986 -1462 -985 -1462 0 -1005 0 -1006 -420 0 -420 0 0 -140 0 -140 600 0 600
0 0 1113 0 1112 1031 1620 c567 891 1035 1628 1040 1638 9 16 -23 17 -619 17
l-630 0 -18 -27z"/>
<path d="M552 5552 c2 -5 41 -68 87 -140 l85 -132 55 0 56 0 755 -1199 c415
-659 758 -1197 762 -1195 14 8 373 538 370 547 -1 5 -303 486 -670 1068 l-667
1059 -418 0 c-230 0 -417 -4 -415 -8z"/>
<path d="M4053 5273 c-110 -159 -449 -649 -753 -1090 -305 -442 -635 -920
-732 -1064 l-178 -261 0 -869 0 -869 -25 0 -25 0 0 -140 0 -140 360 0 360 0 0
963 0 962 940 1394 c517 767 940 1396 940 1398 0 2 -155 3 -344 3 l-345 0
-198 -287z"/>
</g>
</svg>
